<?xml version="1.0" encoding="UTF-8"?>
<svg id="Layer_2" data-name="Layer 2" xmlns="http://www.w3.org/2000/svg" xmlns:xlink="http://www.w3.org/1999/xlink" viewBox="0 0 4732.25 720.1">
  <defs>
    <style>
      .cls-1 {
        fill: url(#linear-gradient);
      }

      .cls-2 {
        fill: #f7e1e0;
      }

      .cls-3 {
        fill: #f7e0de;
      }

      .cls-4 {
        fill: #03a550;
      }

      .cls-5 {
        fill: #e9262a;
      }

      .cls-6 {
        fill: #e52127;
      }

      .cls-7 {
        fill: #f1f0f2;
      }

      .cls-8 {
        fill: #9a2626;
      }

      .cls-9 {
        fill: #882621;
      }

      .cls-10 {
        fill: #9b2625;
      }

      .cls-11 {
        fill: #a91f24;
      }

      .cls-12 {
        fill: #c3c2c5;
      }

      .cls-13 {
        fill: #c72a2b;
      }

      .cls-14 {
        fill: #dd2a30;
      }

      .cls-15 {
        fill: #e32629;
      }

      .cls-16 {
        fill: #151011;
      }

      .cls-17 {
        fill: #9d2323;
      }

      .cls-18 {
        fill: #707074;
      }

      .cls-19 {
        fill: #949498;
      }

      .cls-20 {
        fill: #6f7073;
      }

      .cls-21 {
        fill: url(#linear-gradient-3);
      }

      .cls-22 {
        fill: url(#linear-gradient-4);
      }

      .cls-23 {
        fill: url(#linear-gradient-2);
      }
    </style>
    <linearGradient id="linear-gradient" x1="1347.01" y1="367.98" x2="1430.38" y2="367.98" gradientUnits="userSpaceOnUse">
      <stop offset="0" stop-color="#eb2127"/>
      <stop offset="1" stop-color="#710f11"/>
    </linearGradient>
    <linearGradient id="linear-gradient-2" x1="1523.2" y1="220.57" x2="1523.2" y2="219.85" xlink:href="#linear-gradient"/>
    <linearGradient id="linear-gradient-3" x1="1421.15" y1="220.06" x2="1348.47" y2="375.31" xlink:href="#linear-gradient"/>
    <linearGradient id="linear-gradient-4" x1="1533.52" y1="354.55" x2="1476.27" y2="204.02" xlink:href="#linear-gradient"/>
  </defs>
  <g id="Layer_1-2" data-name="Layer 1">
    <g>
      <path class="cls-16" d="m645.55,363.5c0,67.18,0,134.37.01,201.55,0,1.43-.05,2.44-1.73,3.23-50.17,23.72-100.3,47.52-150.44,71.31-37.74,17.9-75.48,35.8-113.21,53.69-18.48,8.76-36.97,17.49-55.41,26.32-1.44.69-2.46.62-3.82-.03-48.42-23-96.86-45.97-145.3-68.94-41.98-19.91-83.96-39.84-125.95-59.76-15.78-7.49-31.55-15-47.37-22.41C.56,567.65,0,566.72,0,564.78c.05-118.19.05-236.38.05-354.57,0-16.34.02-32.68-.04-49.02,0-1.54.45-2.28,1.85-2.97,50.98-25.17,101.92-50.41,152.88-75.61C210.02,55.27,265.31,27.97,320.56.6c1.77-.87,3.05-.76,4.78.1,52.25,25.91,104.52,51.76,156.8,77.61,47.93,23.7,95.87,47.38,143.8,71.07,5.81,2.87,11.57,5.83,17.43,8.57,1.68.78,2.22,1.68,2.21,3.5-.05,67.35-.04,134.7-.04,202.05Z"/>
      <path class="cls-16" d="m572.32,35.81c0,13.02-.07,26.04.07,39.06.02,2.29-.66,2.92-2.74,2.6-.73-.11-1.5-.1-2.23,0-1.38.18-1.62-.45-1.62-1.69.04-15.84.04-31.68,0-47.53,0-1.4.51-1.64,1.72-1.6,2.73.1,6.02-.83,8.04.39,2.01,1.2,2.01,4.78,2.87,7.33,3.79,11.25,7.56,22.51,11.33,33.77.13.37.05.85.76,1.06,2.58-7.53,5.15-15.08,7.74-22.61,2.08-6.06,4.26-12.09,6.24-18.19.45-1.39,1.05-1.87,2.43-1.74,2.36.23,5.44-1,6.89.5,1.13,1.18.34,4.24.34,6.47.01,13.85-.03,27.7.05,41.55.01,1.82-.37,2.38-2.28,2.31-4.23-.15-4.23-.03-4.23-4.29v-37.02l-.31-.07c-2.54,7.31-5.1,14.61-7.63,21.93-2.03,5.87-4.04,11.74-6.05,17.62-.39,1.14-.77,1.88-2.34,1.86-4.57-.08-4.53.02-6.07-4.56-4.17-12.4-8.38-24.78-12.58-37.17-.13,0-.26.02-.39.03Z"/>
      <path class="cls-16" d="m542.45,55.32c0,6.71-.06,13.43.04,20.14.02,1.66-.48,2.05-2.07,2.03-4.89-.04-4.89.03-4.89-4.86,0-12.6-.04-25.2.04-37.8.01-1.72-.38-2.25-2.15-2.19-4.22.14-8.46-.04-12.68.09-1.69.05-2.06-.51-2.04-2.1.06-3.96-.02-3.96,3.86-3.96,11.36,0,22.71.05,34.07-.05,1.92-.02,2.73.44,2.4,2.41-.1.56-.08,1.17,0,1.74.21,1.48-.27,2-1.86,1.96-4.22-.12-8.46.03-12.68-.08-1.6-.04-2.1.36-2.07,2.02.1,6.88.04,13.76.04,20.64Z"/>
      <path class="cls-19" d="m605.68,183.47c.91.47.48,1.33.48,1.99.02,57.89.02,115.78.02,173.67,0,.33-.04.66-.06.99-.64,1.47-2.1,1.81-3.36,2.37-16.43,7.31-32.86,14.62-49.28,21.93-15.67,6.98-31.32,14-47.02,20.91-14.56,6.41-29.03,13.02-43.6,19.43-1.25.55-2.8,2.05-4.04-.2-.2-.99-.14-1.99-.14-2.98,0-54.76,0-109.51,0-164.27,0-.91-.03-1.82.08-2.72.2-1.32,1.19-1.88,2.27-2.39,13.92-6.58,27.8-13.26,41.69-19.91,19.71-9.44,39.43-18.87,59.15-28.31,13.67-6.54,27.38-12.99,41.02-19.58.9-.44,1.83-.75,2.8-.93Z"/>
      <path class="cls-18" d="m459.4,611.9c-10.95,5.24-21.89,10.5-32.85,15.7-33.69,16-67.39,31.98-101.09,47.96-.73.35-1.48.64-2.49,1.07v-180.04c.84-1.73,2.79-1.81,4.14-2.8.2-.12.4-.23.61-.33,3.52-1.54,6.75-3.66,10.2-5.35,7.03-3.38,13.87-7.1,20.72-10.81,1.05-.57,2.15-1.05,3.19-1.65,18.66-9.4,37.07-19.29,55.65-28.84,12.7-6.58,25.35-13.25,38.08-19.77.81-.41,1.61-.85,2.47-1.15.93-.32,1.63-.15,1.92.9.32,1.31.23,2.64.23,3.97,0,58.77,0,117.54,0,176.31,0,1.64.24,3.34-.78,4.82Z"/>
      <path class="cls-7" d="m605.68,183.47c-3.19,2.24-6.82,3.64-10.3,5.31-29.51,14.15-59.05,28.23-88.58,42.33-15.81,7.54-31.62,15.07-47.44,22.61-.2.12-.42.16-.66.12-1.44-.63-2.94-1.14-4.08-2.3-.33-.55-.87-.83-1.45-1.05-.18-.11-.32-.26-.42-.44-3.81-2.34-7.85-4.2-12.02-5.79-1.48-.5-2.95-1.02-4.05-2.2-2.33-1.91-5.08-3.08-7.76-4.37-.22-.07-.43-.16-.63-.27-.92-.69-1.93-1.12-3.09-1.19-5.68-2.17-10.83-5.4-16.18-8.2-5.14-2.69-10.3-5.35-15.45-8.02-13.4-6.94-26.72-14.02-40.12-20.94-10.16-5.25-20.28-10.58-30.4-15.91-.21-.11-.41-.24-.6-.38-.27-.23-.48-.5-.58-.85.08-.69.53-.94,1.16-.99,39.66-20.33,79.32-40.66,118.98-60.99,5.2-2.67,10.42-5.3,15.59-8.03,1.31-.69,2.35-.68,3.68-.02,31.03,15.4,62.08,30.77,93.13,46.13,16.44,8.13,32.89,16.25,49.33,24.37.66.33,1.3.71,1.94,1.07Z"/>
      <path class="cls-7" d="m181.17,253.75c-38.22-18.95-76.44-37.89-114.66-56.84-8.85-4.38-17.69-8.76-26.86-13.3,5.41-2.7,10.58-5.31,15.78-7.87,30.44-15.04,60.88-30.07,91.32-45.12,12.89-6.38,25.77-12.79,38.65-19.18.21-.11.48-.1.72-.15,1.15-.58,2.1.09,3.02.58,13.99,7.55,28.21,14.67,42.18,22.26,6.69,3.64,13.65,6.77,20.33,10.45,10.59,5.82,21.43,11.19,32.13,16.81,11.8,6.2,23.57,12.47,35.46,18.51.86.44,1.87.8,1.95,2.03-.36.95-1.26,1.25-2.05,1.68-6.16,3.36-12.42,6.52-18.72,9.6-3.93,1.92-7.67,4.21-11.61,6.1-21.02,10.57-41.87,21.45-62.82,32.14-13.57,6.93-27.11,13.93-40.7,20.84-1.11.56-2.19,1.19-3.38,1.57-.25.05-.5.01-.73-.11Z"/>
      <path class="cls-11" d="m181.17,253.75c.18-.04.37-.09.55-.13,1.03,1.32.65,2.87.65,4.32.02,53.41.02,106.82.02,160.23,0,5.92.03,5.98,5.47,3.48,16.19-7.46,32.37-14.93,48.53-22.44,16.46-7.65,32.95-15.26,49.43-22.87,10.08-4.66,20.2-9.26,30.24-14.01,1.77-.68,3.52-1.4,5.22-2.23,1.41-.54,2.75-.35,4.08.29,10.91,5.23,21.83,10.42,32.71,15.71,10.65,5.18,21.37,10.24,32.05,15.37,19.79,9.51,39.6,18.99,59.35,28.61,2.31,1.12,4.71,2.05,6.99,3.25,1.15.61,1.7.27,1.7-1.03,0-.75,0-1.49,0-2.24,0-54.04,0-108.09.02-162.13,0-1.45-.39-3.01.67-4.31.17.03.34.06.51.09.01,54.57.02,109.14.03,163.71,0,2.65.04,5.3.07,7.96.03.08.07.17.1.25-.06.07-.12.14-.18.21-12.23,6.32-24.45,12.64-36.68,18.95-1.68.86-3.39,1.66-5.09,2.48-3.47,1.13-6.5,3.18-9.73,4.79-7.47,3.71-14.79,7.74-22.22,11.53-7.42,3.79-14.74,7.77-22.2,11.49-.57.29-1.22.53-1.58,1.15-.86.64-1.75,1.21-2.83,1.43-7.15,3.18-13.86,7.22-20.9,10.6-3.56,1.9-7.27,3.51-10.6,5.83v-.02c-.71.26-1.65.13-2.13.6-2.05,2.02-4.02.86-5.9-.1-9.05-4.59-18.16-9.07-27.23-13.64-11.12-5.61-22.23-11.25-33.35-16.87-10.46-5.3-20.98-10.49-31.48-15.71-11.11-5.51-22.2-11.06-33.26-16.66-.37-.19-.82-.13-1.18-.36-1.8-.85-3.59-1.7-5.39-2.55-1.97-1.16-4-2.18-6.07-3.15-.23-.05-.41-.18-.54-.38.03-2.57.08-5.13.08-7.7,0-53.94,0-107.89,0-161.83,0-.66.02-1.33.04-1.99Z"/>
      <path class="cls-12" d="m459.4,611.9c0-50.33-.02-100.66-.03-150.99,0-11.69,0-23.38.01-35.07,0,0-.03-.06-.03-.06,1.13-.19,1.87.55,2.63,1.15,18.11,14.49,36.29,28.91,54.45,43.34,13.16,10.47,26.33,20.93,39.5,31.38,15.18,12.06,30.35,24.13,45.48,36.25,1.1.88,2.27,1.67,3.34,2.59.65.56,1.54,1.1.87,2.21-26.12,12.38-52.24,24.75-78.36,37.13-22.02,10.44-44.03,20.89-66.05,31.33-.59.28-1.21.49-1.82.73Z"/>
      <path class="cls-18" d="m605.63,542.71c.1-.93-.65-1.27-1.21-1.72-26.49-21.08-52.98-42.17-79.49-63.24-17.37-13.8-34.76-27.57-52.15-41.35-4.47-3.54-8.95-7.08-13.43-10.61-.02-.15.01-.28.1-.4,7.38-2.72,14.41-6.24,21.6-9.41,14.46-6.37,28.9-12.77,43.32-19.21,12.09-5.39,24.13-10.89,36.22-16.28,13.9-6.19,27.83-12.31,41.74-18.48,1.29-.57,2.52-1.25,3.78-1.88.02.74.06,1.49.06,2.23,0,59.13,0,118.25-.02,177.38,0,.99.51,2.14-.53,2.98Z"/>
      <path class="cls-20" d="m39.89,541.83c-.05-2.15-.13-4.3-.13-6.46,0-58.94,0-117.89,0-176.83q0-3.17,2.77-1.8c33.18,16.49,66.36,32.99,99.55,49.47,11.93,5.93,23.87,11.83,35.82,17.73,1.02.5,1.95,1.26,3.16,1.32,0,0,.15.06.15.06.14.11.21.24.2.38,0,.15-.03.23-.07.23l-.12.04-.07-.11c-2.51,3.14-5.92,5.27-8.96,7.8-14.89,12.39-29.84,24.71-44.79,37.03-12.65,10.42-25.26,20.9-37.94,31.29-15.63,12.8-31.15,25.73-46.77,38.55-.81.67-1.51,1.6-2.78,1.29Z"/>
      <path class="cls-12" d="m39.89,541.83c5.7-4.13,10.93-8.83,16.37-13.28,14.73-12.06,29.42-24.19,44.11-36.31,14.69-12.12,29.36-24.26,44.04-36.4,11.68-9.66,23.35-19.32,35.04-28.97.5-.41,1.12-.68,1.69-1.01.01,6.96.04,13.92.04,20.89,0,53.3,0,106.6,0,159.9,0,.88,0,1.76,0,2.91-8.74-4.13-17.21-8.11-25.66-12.13-37.93-18-75.85-36.01-113.76-54.04-.71-.34-1.93-.23-1.86-1.56Z"/>
      <path class="cls-18" d="m321.04,181.89c-.39-.71-1.12-.96-1.78-1.3-13.59-7.05-27.27-13.92-40.74-21.19-9.89-5.34-20.03-10.18-29.81-15.74-6.39-3.64-13.09-6.74-19.61-10.15-13.5-7.05-26.98-14.14-40.47-21.2-.8-.42-1.67-.69-2.51-1.03,13.84-6.89,27.66-13.81,41.51-20.66,30.84-15.26,61.69-30.5,92.53-45.74.8-.4,1.62-.77,2.79-1.32,0,1.52,0,2.79,0,4.06,0,43.61,0,87.22,0,130.84,0,.83.05,1.65.08,2.48-.34.31-.67.62-1.01.93-.32.35-.64.35-.97.02Z"/>
      <path class="cls-17" d="m193.04,431.34c1.96-.26,3.37,1.04,4.93,1.83,7.71,3.89,15.3,8.05,23.1,11.74,9.41,4.46,18.63,9.31,27.94,13.96,6.18,3.08,12.46,5.99,18.64,9.1,6.13,3.1,12.31,6.11,18.45,9.19,3.18,1.6,6.28,3.36,9.5,4.87,7.1,3.33,13.87,7.33,21.11,10.4.8.34,1.58,1.15,2.47,1.48,1.92.71,3.77,2.68,5.94.25.37-.42,1.59-.08,2.41-.09-1.53.84-3.05,1.67-4.58,2.51-13.41-6.66-26.82-13.31-40.21-20-28.64-14.31-57.27-28.64-85.89-42.98-1.32-.66-2.55-1.51-3.82-2.27Z"/>
      <path class="cls-9" d="m181.33,425.93c-.04-.2-.08-.4-.13-.61,2.41.68,4.59,1.78,6.45,3.47-2.29-.56-4.18-2-6.33-2.86Z"/>
      <path class="cls-10" d="m361.88,476.23c1.21-2.62,4.19-2.54,6.21-3.96,3.27-2.29,7.07-3.77,10.62-5.63,5.44-2.86,11.03-5.45,16.41-8.43,4.12-2.28,8.29-4.55,12.49-6.6,3.21-1.56,6.17-4.12,10.01-4.35-7.87,4.15-15.72,8.33-23.6,12.45-9.95,5.19-19.93,10.34-29.89,15.5-.73.38-1.49.68-2.24,1.02Z"/>
      <path class="cls-8" d="m337.94,488.05c6.61-3.46,13.12-7.1,19.91-10.18.36-.16.8-.14,1.2-.2-6.85,3.99-13.91,7.59-21.07,11.01-.25-.19-.26-.4-.04-.62Z"/>
      <path class="cls-17" d="m337.94,488.05c.01.21.03.41.04.62-3.39,1.98-6.81,3.9-10.43,5.42.76-1.7,2.61-2.02,3.95-2.92,1.97-1.31,4.27-2.11,6.44-3.13Z"/>
      <path class="cls-6" d="m458.85,253.62c.02,13.51.04,27.02.04,40.53,0,42.77,0,85.54,0,128.31,0,.81,0,1.61,0,2.72-2.98-1.35-5.7-2.5-8.35-3.79-13.01-6.3-25.99-12.69-39.02-18.96-11.54-5.55-23.15-10.95-34.7-16.48-8.71-4.17-17.36-8.47-26.06-12.67-8.7-4.2-17.42-8.34-26.11-12.55-1.25-.61-2.41-.15-3.61-.07.39-1.46,1.9-2.58,1.28-4.35-.03-.58.02-1.15-.02-1.73-.02-55.93-.03-111.85,0-167.78.18-1.29-.37-2.49-.53-3.74.09-.44.25-.8.81-.68h0c5.24,3.14,10.73,5.82,16.1,8.69,8.89,4.76,17.88,9.32,26.76,14.1,5.59,3,11.36,5.72,16.96,8.71,8.81,4.72,17.75,9.18,26.54,13.95,4.93,2.68,10.01,5.12,14.97,7.76,4.8,2.55,9.73,4.85,14.5,7.49,4.36,2.42,8.8,4.84,13.54,6.55.37.07.69.23.94.52l.04.02c.62.38,1.5.28,1.95,1,1.33.81,2.66,1.63,3.99,2.44Z"/>
      <path class="cls-13" d="m452.07,250.08c-.57-.01-1.32.21-1.7-.07-2.63-1.97-5.75-3-8.62-4.5-4.71-2.47-9.21-5.37-14.29-7.15-1.63-.57-2.89-1.97-4.49-2.82-7.04-3.74-14.26-7.15-21.19-11.12-4.91-2.81-10.21-4.93-15.11-7.76-3.99-2.3-8.08-4.37-12.19-6.4-7.07-3.49-13.95-7.34-20.93-11.01-6.69-3.52-13.3-7.2-20.14-10.4-3.06-1.43-5.66-3.61-8.87-4.74-.74-.26-1.74-.68-2-1.71,6.24,3.19,12.5,6.33,18.72,9.57,27.16,14.18,54.31,28.39,81.46,42.58.87.46,1.8.8,2.7,1.2,1.06.42,2.24.62,3,1.59l-.02-.02c2.98,1.22,5.8,2.75,8.53,4.46,1.18.84,2.4,1.58,3.81,1.97,3.29,1.6,6.61,3.12,9.8,4.91.63.35,1.38.55,1.52,1.42Z"/>
      <path class="cls-14" d="m322.56,182.39c-.18.19-.37.38-.55.57-9.96,5.47-20.15,10.5-30.31,15.58-.97.49-2.01,1.33-3.17.29,8.22-4.28,16.43-8.56,24.65-12.84,2.62-1.37,5.24-2.74,7.86-4.11.32,0,.65-.01.97-.02.18.18.36.35.55.53Z"/>
      <path class="cls-3" d="m452.07,250.08c-3.77-2.11-7.55-4.22-11.32-6.33,3.74.89,6.9,3.11,10.39,4.58.66.28,1.25.66,1.97.9.87.28-.25.57-.24.93-.27-.03-.53-.05-.8-.08Z"/>
      <path class="cls-2" d="m436.94,241.79c-2.97-1.24-5.82-2.71-8.53-4.46.83-.15,1.61-.17,2.36.38,1.6,1.18,3.3,2.2,5.23,2.78.59.18.99.6.93,1.3Z"/>
      <path class="cls-2" d="m428.43,237.35c-1.12-.31-2.15-.77-3-1.59,1.3-.04,2.47.18,3,1.59Z"/>
      <path class="cls-3" d="m454.86,251.18c-.75-.13-1.41-.44-1.95-1,.8.03,1.84-.39,1.95,1Z"/>
      <path class="cls-5" d="m288.54,198.83c3.84-.59,6.94-2.89,10.31-4.55,3.88-1.91,7.68-3.98,11.66-5.71,3.2-1.39,6.04-3.63,9.25-5.13.74-.35,1.35-.99,2.25-.48.67.88,1.22,1.81,1,2.99-.82.77-.75,1.78-.75,2.78,0,54.55,0,109.11,0,163.66,0,.99-.15,2.02.75,2.77,0,.5,0,.99,0,1.49-.78,3.47-3.87,4.48-6.46,6.02-5.08,2.98-10.61,5.02-15.89,7.58-6.03,2.92-12.16,5.63-18.24,8.43-10.15,4.67-20.32,9.32-30.45,14.02-10.96,5.09-21.87,10.27-32.84,15.35-11.78,5.46-23.61,10.83-35.4,16.28-1.49.69-2.15.52-2.09-1.26.06-1.91.01-3.81.01-5.72,0-53.67,0-107.33,0-161,0-.91.03-1.82.05-2.74,8.51-4.83,17.34-9.05,26.04-13.52,26.38-13.58,52.78-27.11,79.18-40.65.5-.26,1.06-.41,1.6-.61Z"/>
      <path class="cls-15" d="m316.56,362.68c.32-.75.61-1.46,1.64-1.58,2.66-.29,2.89-3.3,4.82-4.44.4,1.86-.41,3.12-1.98,4.01-1.28,1.13-2.9,1.53-4.47,2.01Z"/>
      <path class="cls-15" d="m323.01,355.16c-.82.01-1.51-.15-1.48-1.19.01-.5,0-.99,0-1.49,0-54.47,0-108.94.02-163.41,0-1.2-.59-2.83,1.48-3.12,0,56.4,0,112.81,0,169.21Z"/>
    </g>
    <path d="m4726.73,335.66c-1.95,1.71-3.29,2.57-4.02,2.57-.42,0-1.14-.21-2.17-.67-15.74-6.98-32.01-10.5-48.83-10.5-25.44,0-44.52,6.38-57.27,19.09-8.16,8.09-12.24,17.7-12.24,28.77,0,14.06,6.54,25.62,19.55,34.67,12.43,8.66,28.53,12.98,48.34,12.98,10.25,0,19.69-1.13,28.24-3.44,4.13-1.1,7.92-2.41,11.4-3.99,3.48-1.55,7.85-3.88,13.14-7,1.55-.96,2.63-1.43,3.26-1.43,1.05,0,2.37.55,3.97,1.69l2.14-1.34-15.32-14.62-2.08,1.3c.97,1.44,1.46,2.47,1.46,3.1,0,1.3-2.53,3.41-7.58,6.45-11.19,6.67-24.11,10.02-38.77,10.02s-27.57-3.64-37.8-10.88c-10.56-7.4-15.85-16.74-15.85-28.02s5.09-20.49,15.25-27.59c10-7,23.03-10.49,39.11-10.49,11.94,0,22.97,1.95,33.08,5.82,7.34,2.77,11.02,5.1,11.02,6.94,0,.77-.25,1.81-.77,3.18l2.31,1.09,12.75-16.69-2.34-1.03Zm-222.17,1.03c0-1.9.37-3.22,1.1-4,.76-.75,2.22-1.37,4.41-1.83v-2.14h-24.54v2.14c2.18.46,3.65,1.08,4.38,1.83.74.79,1.12,2.11,1.12,4v76.28c0,1.86-.36,3.21-1.06,3.98-.73.75-2.2,1.37-4.44,1.81v2.19h94.12c2.42,0,4.13.29,5.13.87,1.01.57,1.77,1.74,2.27,3.44h2.76v-17.43h-2.76c-.5,1.71-1.26,2.86-2.27,3.46-.99.58-2.71.85-5.13.85h-75.09v-75.46Zm-127.38.82h44.11c6.59,0,11.45.17,14.62.58,3.18.41,6.01,1.2,8.53,2.38,5.87,2.7,8.79,7.25,8.79,13.65s-2.92,10.88-8.79,13.59c-2.53,1.15-5.37,1.94-8.57,2.34-3.18.39-8.05.63-14.58.63h-44.11v-33.18Zm42.79,41.96c10.81,0,19.11-.7,24.94-2.07,5.83-1.38,10.64-3.79,14.42-7.25,4.96-4.5,7.42-9.93,7.42-16.25,0-4.57-1.35-8.69-4.04-12.42-2.42-3.29-5.6-5.89-9.55-7.76-3.79-1.9-8.1-3.2-12.93-3.92-4.82-.74-11.57-1.08-20.25-1.08h-61.82v2.14c2.08.46,3.5,1.04,4.3,1.78.81.7,1.22,1.77,1.22,3.1v78.11c0,1.41-.41,2.47-1.22,3.2-.79.7-2.22,1.28-4.3,1.73v2.19h24.54v-2.19c-2.06-.45-3.5-1.02-4.31-1.73-.79-.73-1.2-1.79-1.2-3.2v-34.38h42.79Zm-147.97,29.5c0,3.01-.59,5.19-1.78,6.43-1.23,1.22-3.56,2.21-7.09,2.93v3.54h39.6v-3.54c-3.49-.72-5.89-1.71-7.07-3.01-1.2-1.21-1.81-3.37-1.81-6.35v-123.16c0-3.07.61-5.2,1.81-6.46,1.19-1.22,3.59-2.21,7.07-2.95v-3.45h-39.6v3.45c3.53.66,5.86,1.63,7.09,2.9,1.19,1.29,1.78,3.45,1.78,6.52v52.36h-129.98v-52.36c0-3.07.59-5.2,1.78-6.46,1.23-1.22,3.59-2.21,7.12-2.95v-3.45h-39.65v3.45c3.52.66,5.92,1.63,7.1,2.9,1.23,1.29,1.81,3.45,1.81,6.52v123.16c0,3.01-.58,5.19-1.75,6.43-1.13,1.22-3.52,2.21-7.16,2.93v3.54h39.65v-3.54c-3.64-.72-6.04-1.71-7.17-2.93-1.16-1.24-1.72-3.43-1.72-6.43v-56.64h129.98v56.64Zm-202.93-128.36c-2.85,2.95-5.13,4.42-6.81,4.42-.73,0-2.65-.52-5.71-1.54-13.72-4.84-26.03-8.23-36.92-10.22-10.85-2.02-22.66-3.01-35.36-3.01-15.59,0-29.89,1.6-42.98,4.78-13.05,3.15-23.31,7.51-30.73,13.03-10.03,7.6-15.01,16.62-15.01,27.17,0,6.19,1.89,11.88,5.77,17.15,3.82,5.22,9.06,9.28,15.61,12.23,7.06,3.09,15.13,5.33,24.15,6.77,9.03,1.35,21.54,2.29,37.5,2.82,22.32.67,35.86,1.13,40.65,1.46,4.77.33,9.38,1.1,13.83,2.35,13.81,3.67,20.72,10.44,20.72,20.16,0,7.43-4.05,13.84-12.1,19.23-12.14,8.09-29.94,12.12-53.4,12.12-11.56,0-22.32-.97-32.16-2.9-9.9-1.96-20.15-5.08-30.81-9.47-11.86-4.8-17.81-8.43-17.81-10.77,0-.99.9-2.98,2.65-5.88l-3.9-1.74-20.83,27.42,3.72,1.82c2.98-2.65,5.16-3.95,6.55-3.95.83,0,3.56.86,8.19,2.48,16.61,6.88,30.88,11.54,42.83,14.11,11.94,2.54,25.96,3.81,41.99,3.81,27.82,0,49.65-4.83,65.5-14.39,14.27-8.59,21.41-19.61,21.41-33.06,0-14.14-7.86-24.64-23.63-31.54-5.94-2.62-13.49-4.5-22.66-5.55-9.19-1.02-24.46-1.8-45.72-2.32-15.41-.39-26.51-.88-33.32-1.58-6.81-.69-12.73-1.93-17.75-3.75-4.54-1.6-8.18-4.01-10.98-7.24-2.77-3.26-4.14-6.65-4.14-10.3,0-4.36,1.78-8.48,5.34-12.4,3.55-3.89,8.41-7.12,14.54-9.58,12.67-4.99,27.61-7.51,44.77-7.51,20.87,0,40.59,3.4,59.24,10.25,6.84,2.51,10.29,4.88,10.29,7.09,0,.83-.79,2.84-2.4,6.1l3.9,1.63,19.87-28.17-3.88-1.55Zm-269.91,71.72c3.9,0,6.67.47,8.28,1.44,1.67.93,2.85,2.78,3.7,5.58h4.43v-28.19h-4.43c-.84,2.82-2.03,4.67-3.7,5.58-1.6.94-4.37,1.44-8.28,1.44h-78.55v-51.04h119.87c3.9,0,6.64.44,8.26,1.41,1.64.97,2.85,2.79,3.71,5.55h4.43v-28.14h-4.43c-.97,2.79-2.19,4.62-3.79,5.58-1.57.91-4.28,1.41-8.18,1.41h-150.6v3.45c3.52.75,5.88,1.74,7.08,2.95,1.23,1.27,1.81,3.4,1.81,6.46v123.16c0,3.01-.55,5.19-1.75,6.43-1.13,1.22-3.49,2.21-7.13,2.93v3.54h152.29c3.88,0,6.65.47,8.25,1.41,1.63.92,2.91,2.82,3.82,5.55h4.45v-28.14h-4.45c-.83,2.76-2.07,4.61-3.68,5.58-1.63.93-4.36,1.38-8.26,1.38h-121.68v-55.31h78.55Zm-314.91-65.2h68.55c15.03,0,26.98,1.3,35.9,3.9,8.88,2.62,16.43,7.04,22.66,13.31,11.19,11.33,16.81,25.72,16.81,43,0,9.53-1.75,18.28-5.27,26.27-5.39,12.01-13.82,20.96-25.32,26.76-9.74,4.86-24.65,7.29-44.78,7.29h-68.55v-120.51Zm-23.78,128.41c-1.28,1.14-3.64,2.07-6.94,2.79v3.54h100.11c21.21,0,38.32-2.38,51.22-7.18,12.94-4.72,23.63-12.59,32.05-23.5,9.38-12.26,14.07-26.92,14.07-43.85,0-14.33-3.5-27.11-10.43-38.41-7.99-12.87-19.59-22.4-34.8-28.58-12.03-4.94-29.42-7.4-52.12-7.4h-100.11v3.45c3.3.75,5.66,1.69,6.94,2.87,1.31,1.14,1.93,2.85,1.93,5v126.26c0,2.16-.62,3.84-1.93,5.03Zm-173.64-49.68l42.7-73.57,42.74,73.57h-85.45Zm108.99,40.93c2.04,3.34,3.06,5.61,3.06,6.76,0,2.62-2.69,4.22-8.08,4.78v3.54h45.05v-3.54c-5.27-.97-8.7-2.24-10.27-3.67-1.59-1.46-4.84-6.41-9.74-14.75l-66.6-113.47c-1.66-2.82-2.5-4.67-2.5-5.44,0-1.91,2.26-3.46,6.81-4.62v-3.45h-46.15v3.45c4.48.97,6.79,2.37,6.79,4.28,0,1.02-.84,2.95-2.51,5.77l-69.54,117.72c-3.2,5.6-5.85,9.25-7.83,10.93-1.99,1.65-4.9,2.76-8.69,3.23v3.54h42.34v-3.54c-5.5-.72-8.22-2.16-8.22-4.33,0-1.08.79-2.99,2.33-5.69l16.69-28.22h101.54l15.53,26.7Zm-312.62-120.98c0-3.07.62-5.2,1.83-6.46,1.2-1.22,3.59-2.21,7.12-2.95v-3.45h-39.65v3.45c3.53.75,5.89,1.74,7.08,2.95,1.23,1.27,1.81,3.4,1.81,6.46v123.16c0,3.01-.58,5.19-1.71,6.43-1.17,1.22-3.56,2.21-7.17,2.93v3.54h152c3.88,0,6.65.47,8.28,1.41,1.6.92,2.83,2.82,3.67,5.55h4.45v-28.14h-4.45c-.84,2.76-2.07,4.61-3.67,5.58-1.63.93-4.4,1.38-8.28,1.38h-121.29v-121.84Zm-76.27-.56c-3.06,3.04-5.32,4.58-6.81,4.58-.94,0-3.41-.91-7.38-2.62-13.71-6.02-26.51-10.38-38.36-12.98-11.89-2.59-24.77-3.97-38.67-3.97-15.85,0-30.68,1.99-44.48,5.86-19.59,5.49-35.14,14.28-46.74,26.29-12.5,13.01-18.76,27.92-18.76,44.71,0,11.71,3.2,22.83,9.59,33.38,5.66,9.2,13.28,17.15,22.97,23.81,19.52,13.42,45.18,20.16,76.85,20.16,25.79,0,48.74-4.45,68.88-13.31,9.26-4.06,19.1-9.8,29.6-17.15v-3.04c-3.53-.72-5.89-1.68-7.12-2.98-1.19-1.22-1.79-3.34-1.79-6.38v-19.35c0-3.01.61-5.16,1.79-6.41,1.23-1.24,3.59-2.2,7.12-2.95v-3.5h-74.67c-3.9,0-6.65-.44-8.28-1.41-1.63-.93-2.86-2.78-3.67-5.55h-4.45v28.17h4.45c.81-2.81,2.04-4.61,3.67-5.58,1.63-.94,4.37-1.41,8.28-1.41h44.89v27.5c-8.15,5.8-18.18,10.3-30.09,13.56-11.89,3.23-24.44,4.86-37.61,4.86-24.94,0-45.42-5.28-61.45-15.79-17.46-11.43-26.16-26.74-26.16-46.04s9.14-35.43,27.39-47.08c15.93-10.22,35.54-15.35,58.78-15.35,20.03,0,39.57,4.03,58.69,12.15,9.88,4.14,14.86,7.35,14.86,9.58,0,1.08-.84,2.73-2.51,4.89l3.61,1.96,21.36-26.62-3.77-1.96Zm-281.47,120.79c3.9,3.59,5.82,6.24,5.82,7.84,0,2.1-2.1,3.59-6.39,4.45v3.54h43.85v-3.54c-3.55-.72-5.9-1.71-7.13-2.93-1.2-1.24-1.81-3.43-1.81-6.43v-123.16c0-3.07.61-5.22,1.81-6.52,1.23-1.27,3.59-2.24,7.13-2.9v-3.45h-37.72v3.45c3.53.66,5.92,1.63,7.1,2.9,1.23,1.29,1.81,3.45,1.81,6.52v108.64l-114.41-104.94c-4.34-4.01-6.52-6.74-6.52-8.2,0-2.1,2.18-3.76,6.52-4.92v-3.45h-54.51v3.45c3.49.66,5.86,1.63,7.08,2.9,1.2,1.29,1.81,3.45,1.81,6.52v123.16c0,3.01-.61,5.19-1.75,6.43-1.13,1.22-3.55,2.21-7.13,2.93v3.54h37.67v-3.54c-3.52-.72-5.88-1.71-7.1-3.01-1.2-1.21-1.78-3.37-1.78-6.35v-117.17l125.66,114.25Zm-323.2-40.18l42.69-73.57,42.74,73.57h-85.43Zm108.96,40.93c2.07,3.34,3.06,5.61,3.06,6.76,0,2.62-2.68,4.22-8.1,4.78v3.54h45.07v-3.54c-5.28-.97-8.72-2.24-10.29-3.67-1.57-1.46-4.84-6.41-9.72-14.75l-66.6-113.47c-1.7-2.82-2.54-4.67-2.54-5.44,0-1.91,2.28-3.46,6.81-4.62v-3.45h-46.15v3.45c4.55.97,6.79,2.37,6.79,4.28,0,1.02-.81,2.95-2.5,5.77l-69.49,117.72c-3.27,5.6-5.89,9.25-7.9,10.93-1.97,1.65-4.85,2.76-8.67,3.23v3.54h42.36v-3.54c-5.48-.72-8.25-2.16-8.25-4.33,0-1.08.8-2.99,2.4-5.69l16.66-28.22h101.54l15.52,26.7Zm-341.1-55.4h74.82c14.65,0,25.46.74,32.51,2.18,7.05,1.52,12.84,4.33,17.42,8.5,5.45,5,8.16,11.11,8.16,18.17,0,5.41-1.55,10.14-4.63,14.2-3.12,4.06-7.43,7.12-12.99,9.19-4.55,1.58-9.48,2.68-14.77,3.24-5.28.5-13.41.77-24.33.77h-76.19v-56.25Zm0-64.26h71.76c14.07,0,24.55.67,31.35,1.96,6.79,1.39,12.35,3.84,16.61,7.41,5.3,4.5,7.92,9.94,7.92,16.35,0,4.8-1.49,9.03-4.43,12.62-2.97,3.73-7.13,6.38-12.52,8.12-4.37,1.39-9.09,2.32-14.25,2.85-5.13.5-12.91.75-23.28.75h-73.15v-50.04Zm148.5,25.72c0-13.48-6.39-23.78-19.17-30.98-5.6-3.21-11.97-5.5-19.27-6.85-7.28-1.41-16.48-2.07-27.61-2.07h-113.2v3.45c3.53.66,5.92,1.63,7.12,2.9,1.19,1.29,1.81,3.45,1.81,6.52v123.16c0,3.01-.62,5.19-1.81,6.43-1.2,1.22-3.59,2.21-7.12,2.93v3.54h110.55c18.35,0,32.51-1.35,42.41-4.12,9.94-2.71,17.81-7.4,23.67-14.03,5.9-6.65,8.88-14.44,8.88-23.23,0-18.22-11.02-30.21-33.07-36.01,17.86-6.76,26.81-17.31,26.81-31.64Z"/>
    <g>
      <path class="cls-4" d="m1017,519.31h5.22l-8.14,40.42-4.9-.72c0-22.26-7.67-33.39-23-33.39-12.29,0-23.06,8.54-32.34,25.62-9.22,17.03-13.83,36.25-13.83,57.66,0,11.43,2.4,20.06,7.19,25.89,4.85,5.77,11.17,8.66,18.97,8.66,8.8,0,14.47-2.35,17-7.04l5.85-23.28c1.9-7.33,2.85-12.63,2.85-15.88,0-2.82-1.05-4.75-3.16-5.77-2.11-1.08-5.27-1.63-9.49-1.63v-4.6h46.8v4.6c-4.43,0-7.35,1.24-8.78,3.7-1.42,2.41-2.71,6.1-3.87,11.1l-7.59,33.74-4.59,2.53c-10.75,6.01-23.03,9.02-36.84,9.02-14.65,0-26.54-4.36-35.65-13.09-9.07-8.72-13.6-21.2-13.6-37.44,0-20.63,6.59-39.12,19.76-55.49,13.23-16.42,29.33-24.63,48.31-24.63,6.64,0,12.46.93,17.47,2.8,5.06,1.8,8.31,2.71,9.73,2.71s2.69-.36,3.64-1.08c1-.73,2-2.2,3.01-4.43Z"/>
      <path class="cls-4" d="m1121.98,621.62c0-14.8,4.69-28.45,14.07-40.97,9.38-12.57,20.4-18.86,33.05-18.86,6.91,0,12.81,2.53,17.71,7.58,4.95,4.99,7.43,12.03,7.43,21.11,0,13.96-4.5,27.24-13.52,39.88-8.96,12.63-19.79,18.94-32.49,18.94-6.9,0-13.02-2.37-18.34-7.12-5.27-4.81-7.9-11.67-7.9-20.57Zm19.13,9.56c0,8.36,2.8,12.54,8.38,12.54,6.59,0,12.49-8,17.71-24,5.27-16,7.9-29.57,7.9-40.69,0-7.76-2.61-11.64-7.82-11.64-7.17,0-13.34,7.94-18.5,23.82-5.11,15.88-7.67,29.2-7.67,39.97Z"/>
      <path class="cls-4" d="m1436.29,607.64c0-22.08,6.88-42.31,20.64-60.72,13.75-18.41,30.07-27.61,48.94-27.61,11.01,0,20.26,4.06,27.75,12.18,7.49,8.06,11.23,18.98,11.23,32.75,0,19.67-7.06,38.89-21.19,57.65-14.12,18.71-30.09,28.06-47.91,28.06-12.07,0-21.66-4.06-28.78-12.18-7.11-8.18-10.67-18.23-10.67-30.14Zm23.8,11.55c0,16.3,5.48,24.45,16.44,24.45,12.12,0,22.56-11.55,31.31-34.65,8.8-23.15,13.2-43.27,13.2-60.36,0-7.09-1.53-12.69-4.59-16.78-3-4.15-7.03-6.23-12.1-6.23-12.81,0-23.4,11.94-31.78,35.82-8.33,23.88-12.49,43.13-12.49,57.74Z"/>
      <path class="cls-4" d="m1639.31,646.71l10.76-41.14c3.95-15.03,5.93-24.27,5.93-27.7,0-2.28-.71-3.82-2.14-4.6-1.37-.78-3.64-1.17-6.8-1.17v-4.96l12.1-1.26c8.06-.9,14.81-2.25,20.24-4.07l-9.25,33.21c7.85-16.06,13.44-25.59,16.76-28.6,3.32-3.07,6.32-4.6,9.01-4.6s5.01,1.12,6.64,3.34c1.68,2.16,2.53,5.11,2.53,8.84s-.85,7.03-2.53,9.75c-1.69,2.71-4.08,4.06-7.19,4.06-2.17,0-4.16-1.23-6.01-3.7-.48-.48-1-1.2-1.58-2.17-.58-1.02-1.16-1.53-1.74-1.53-2.37,0-5.72,4.24-10.04,12.72-4.27,8.48-8.12,19.28-11.54,32.39-2.48,9.5-4.38,16.58-5.69,21.2h-19.45Z"/>
      <path class="cls-4" d="m1876.87,567.85v10.29h-10.83c.64,2.65.95,5.23.95,7.76,0,9.62-3.43,17.53-10.28,23.73-6.86,6.14-14.76,9.2-23.72,9.2h-.79c-1.43,0-2.82-.24-4.19-.73-1.37-.54-2.63-.81-3.79-.81s-2.19.78-3.24,2.35c-1.05,1.57-1.58,2.95-1.58,4.15,0,2.65,2.53,4.87,7.59,6.67,5.11,1.75,8.22,2.77,9.33,3.07,9.8,3.07,16.31,6.44,19.53,10.11,3.21,3.61,4.82,7.91,4.82,12.9,0,8.18-3.56,14.85-10.68,20.03-7.11,5.11-16.63,7.67-28.54,7.67-8.12,0-15.24-1.56-21.35-4.69-6.12-3.19-9.17-7.76-9.17-13.71,0-4.93,1.42-8.93,4.27-12,2.85-3.07,8.59-5.8,17.24-8.21-6.48-2.58-9.73-6.52-9.73-11.82,0-3.37.97-6.26,2.93-8.66,2-2.46,6.09-5.6,12.25-9.38-3.95-1.69-7.06-4.21-9.32-7.58-2.27-3.43-3.4-7.73-3.4-12.9,0-8.6,3.32-16.33,9.96-23.18,6.7-6.86,15.42-10.29,26.17-10.29,7.17,0,13.05,2.02,17.63,6.05h17.94Zm-59.37,80.12c-1.53,0-3.97,1.65-7.35,4.96-3.32,3.31-4.98,6.83-4.98,10.56s1.63,7.22,4.9,10.11c3.26,2.89,7.41,4.33,12.41,4.33,7.33,0,12.6-1.14,15.82-3.43,3.21-2.29,4.82-5.44,4.82-9.47,0-4.75-2.51-8.27-7.51-10.56-3.37-1.44-7.01-2.89-10.91-4.33-3.91-1.44-6.3-2.17-7.2-2.17Zm6.48-46.01c0,7.52,2.42,11.28,7.27,11.28s8.62-3.93,11.94-11.82c3.32-7.88,4.98-15.28,4.98-22.2,0-7.88-2.42-11.82-7.28-11.82s-8.96,4.15-12.18,12.45c-3.16,8.3-4.74,15.67-4.74,22.11Z"/>
      <path class="cls-4" d="m2015.14,626.23c-5.59,9.74-10.33,16.03-14.23,18.86-3.85,2.82-7.93,4.24-12.25,4.24-5.48,0-9.78-2.1-12.89-6.31-3.11-4.21-4.67-10.2-4.67-17.96,0-13.47,4.82-27.37,14.47-41.68,9.7-14.37,19.47-21.57,29.33-21.57,4.01,0,7.09,1.48,9.25,4.43,2.22,2.95,3.32,5.8,3.32,8.57l3.08-10.65,17.87-1.26-13.76,52.24c-2.16,8.24-3.24,14.29-3.24,18.13,0,2.11.76,3.16,2.29,3.16,2,0,5.77-4.27,11.31-12.81l3.4,2.71c-8.65,15.52-16.71,23.28-24.19,23.28-3,0-5.58-1.12-7.75-3.34-2.16-2.29-3.24-5.2-3.24-8.75,0-2.29.64-6.05,1.9-11.28Zm-23.64-.73c0,3.49.68,6.14,2.06,7.94,1.42,1.8,3.05,2.71,4.9,2.71,5.43,0,10.99-6.82,16.69-20.48,5.74-13.71,8.61-25.83,8.61-36.36,0-6.43-2.03-9.65-6.09-9.65-5.69,0-11.49,7.1-17.39,21.3-5.85,14.2-8.78,25.72-8.78,34.55Z"/>
      <path class="cls-4" d="m2148.42,646.71l11.55-46.92c3.43-13.65,5.14-21.32,5.14-23,0-1.99-.66-3.25-1.98-3.79-1.27-.6-3.59-.9-6.96-.9v-4.96c8.8,0,19.58-1.77,32.33-5.33l-10.12,36.1c6.27-10.89,11.99-19.61,17.15-26.17,5.17-6.61,11.25-9.93,18.26-9.93,7.85,0,11.78,4.97,11.78,14.89,0,4.57-2.4,14.86-7.19,30.86-3.32,10.71-5.33,17.53-6.01,20.48-.69,2.88-1.03,4.54-1.03,4.96,0,1.39.19,2.31.56,2.8.37.48,1.05.72,2.06.72,2.06,0,5.72-4.39,10.99-13.17l3.71,2.35c-4.69,9.08-8.99,15.31-12.89,18.67-3.9,3.31-8.01,4.96-12.33,4.96-7.64,0-11.46-4.06-11.46-12.18,0-5.24,2.34-15.97,7.03-32.21,2.9-9.8,4.79-16.21,5.69-19.22.95-3.01,1.43-5.11,1.43-6.31,0-1.5-.34-2.59-1.03-3.25-.63-.72-1.58-1.08-2.85-1.08-3.58,0-8.35,5.05-14.31,15.16-5.96,10.05-10.88,21.71-14.78,35.01-1.95,7.1-3.72,14.26-5.3,21.47h-19.45Z"/>
      <path class="cls-4" d="m2367.88,621.89l3.72,2.61c-6.12,10.65-11.12,17.45-15.02,20.4-3.85,2.95-7.7,4.42-11.54,4.42-7.59,0-11.39-4.12-11.39-12.36,0-2.77.87-7.76,2.61-14.98l8.06-34.11c1.32-5.35,1.98-8.66,1.98-9.92,0-3.91-2.82-5.86-8.46-5.86h-1.11v-4.96c13.17-1.09,24.09-2.86,32.73-5.33l-14.39,60.09c-1.32,5.41-1.98,9.33-1.98,11.73,0,.84.23,1.53.71,2.07s1.11.81,1.9.81c2.53,0,6.59-4.87,12.18-14.62Zm-14.39-88.51c0-3.43,1.03-6.35,3.08-8.75,2.11-2.41,4.69-3.61,7.75-3.61s5.58,1.23,7.74,3.69c2.22,2.41,3.32,5.36,3.32,8.84,0,3.13-1,5.99-3,8.57-2,2.53-4.85,3.79-8.54,3.79-2.16,0-4.43-1.09-6.8-3.25-2.37-2.16-3.56-5.26-3.56-9.29Z"/>
      <path class="cls-4" d="m2524.96,620.45l4.66,3.34c-6.54,10.95-12.23,17.96-17.08,21.02-4.79,3.01-9.78,4.51-14.94,4.51-7.22,0-13-2.58-17.32-7.76-4.33-5.23-6.48-12-6.48-20.3,0-13.9,4.71-27.28,14.15-40.15,9.43-12.87,19.82-19.31,31.15-19.31,5.43,0,9.81,1.42,13.12,4.24,3.32,2.83,4.98,6.65,4.98,11.46,0,4.51-1,7.85-3.01,10.01-1.95,2.11-4.42,3.16-7.43,3.16-2.06,0-4.08-.81-6.09-2.43-1.95-1.69-2.93-4.15-2.93-7.4,0-1.86.53-3.85,1.59-5.95,1.21-2.11,1.82-3.49,1.82-4.15,0-2.22-1.19-3.34-3.56-3.34-5.69,0-11.01,6.23-15.97,18.67-4.95,12.39-7.43,23.43-7.43,33.12,0,12.21,3.88,18.31,11.62,18.31,6.22,0,12.6-5.68,19.14-17.05Z"/>
      <path class="cls-4" d="m2778.25,608.09l4.5.37c0,9.32,2.08,17.5,6.24,24.54,4.22,6.98,10.54,10.46,18.98,10.46,6.37,0,11.38-2.31,15.02-6.95,3.69-4.63,5.53-10.22,5.53-16.78s-3.53-13.2-10.6-20.3c-12.65-12.75-20.69-21.5-24.11-26.25-3.37-4.81-5.05-10.47-5.05-16.96,0-10.65,3-19.46,9-26.44,6.06-6.97,14.05-10.47,23.97-10.47,3.84,0,8.25.97,13.2,2.89,4.95,1.93,8.31,2.89,10.05,2.89,3.53,0,5.95-1.69,7.26-5.05h4.82l-6.32,36.81-4.42-.72c-1.95-20.21-8.96-30.32-21.03-30.32-5.59,0-9.81,1.95-12.65,5.86-2.8,3.85-4.19,8.69-4.19,14.53,0,3.67.95,6.97,2.85,9.92,1.89,2.95,7.14,8.33,15.73,16.15,14.12,12.69,21.19,25.35,21.19,37.98s-3.14,22.19-9.42,29.23c-6.27,6.97-15.73,10.46-28.38,10.46-4.8,0-10.17-.96-16.13-2.89-5.91-1.92-9.42-2.88-10.52-2.88-1.42,0-2.67.42-3.72,1.26-1,.84-1.97,2.35-2.92,4.51h-4.82l5.93-41.87Z"/>
      <path class="cls-4" d="m2996.98,626.23c-5.58,9.74-10.32,16.03-14.23,18.86-3.85,2.82-7.93,4.24-12.26,4.24-5.48,0-9.77-2.1-12.89-6.31-3.1-4.21-4.66-10.2-4.66-17.96,0-13.47,4.82-27.37,14.47-41.68,9.7-14.37,19.47-21.57,29.34-21.57,4,0,7.08,1.48,9.24,4.43,2.21,2.95,3.32,5.8,3.32,8.57l3.08-10.65,17.87-1.26-13.76,52.24c-2.17,8.24-3.24,14.29-3.24,18.13,0,2.11.77,3.16,2.29,3.16,2,0,5.77-4.27,11.31-12.81l3.4,2.71c-8.65,15.52-16.71,23.28-24.19,23.28-3,0-5.59-1.12-7.74-3.34-2.17-2.29-3.24-5.2-3.24-8.75,0-2.29.63-6.05,1.89-11.28Zm-23.63-.73c0,3.49.69,6.14,2.05,7.94,1.42,1.8,3.06,2.71,4.9,2.71,5.43,0,10.99-6.82,16.68-20.48,5.75-13.71,8.63-25.83,8.63-36.36,0-6.43-2.04-9.65-6.09-9.65-5.69,0-11.49,7.1-17.39,21.3-5.85,14.2-8.78,25.72-8.78,34.55Z"/>
      <path class="cls-4" d="m3148.93,572.36h-10.99l1.58-7.94h11.07c6.75-31.1,19.26-46.64,37.55-46.64,5.43,0,9.38,1.47,11.86,4.42,2.47,2.89,3.72,6.29,3.72,10.2,0,2.95-.69,5.35-2.06,7.22-1.32,1.8-3.21,2.71-5.69,2.71-2.8,0-4.87-.9-6.24-2.71-1.37-1.86-2.05-4.09-2.05-6.67,0-1.5.39-2.8,1.18-3.88.85-1.08,1.27-1.92,1.27-2.53,0-1.2-.24-2.01-.72-2.43-.41-.48-1.05-.73-1.89-.73-5.8,0-10.7,8.9-14.71,26.71l-3.24,14.35h15.18l-1.58,7.94h-14.86c-8.02,42.95-14.34,70.71-18.98,83.28-7.01,19.07-16.86,28.6-29.57,28.6-5.11,0-9.06-1.32-11.86-3.97-2.74-2.71-4.11-6.44-4.11-11.19,0-2.52.71-4.72,2.14-6.58,1.42-1.87,3.55-2.8,6.4-2.8,2.15,0,4,.87,5.53,2.61,1.52,1.75,2.29,3.82,2.29,6.22,0,1.93-.42,3.64-1.27,5.14-.79,1.44-1.18,2.29-1.18,2.53,0,.9.24,1.53.71,1.89.47.37,1.16.54,2.05.54,3.64,0,6.4-2.43,8.31-7.31,1.9-4.93,4.11-13.86,6.64-26.79,3.53-19.13,8.03-43.19,13.52-72.18Z"/>
      <path class="cls-4" d="m3301.35,613.23c-.63,3.37-.95,6.29-.95,8.75,0,10.35,3.72,15.52,11.16,15.52,5.58,0,11.7-5.68,18.34-17.05l4.66,3.16c-4.27,8.84-8.91,15.34-13.92,19.49-4.95,4.15-10.25,6.22-15.89,6.22-6.85,0-12.7-2.46-17.55-7.4-4.8-4.93-7.19-11.69-7.19-20.3,0-13.84,4.69-27.25,14.07-40.24,9.38-13.05,20.22-19.58,32.5-19.58,4.79,0,8.8,1.39,12.02,4.15,3.21,2.71,4.82,6.74,4.82,12.09,0,6.92-3.69,13.98-11.07,21.2-7.33,7.22-17.66,11.88-31,13.98Zm1.19-6.05c7.22-1.92,13.41-5.77,18.58-11.54,5.21-5.84,7.82-13.03,7.82-21.57,0-4.45-1.58-6.68-4.74-6.68-3.91,0-7.96,3.76-12.18,11.28-4.17,7.46-7.33,16.96-9.49,28.51Z"/>
      <path class="cls-4" d="m3575.5,646.71v-4.6c4.58-.72,7.64-2.2,9.17-4.42,1.58-2.29,2.88-5.44,3.87-9.48l19.53-81.83c1.32-5.35,1.98-9.26,1.98-11.73,0-2.89-1.25-4.84-3.72-5.86-2.42-1.08-5.13-1.63-8.15-1.63v-4.6h51.87v4.6c-5.91,0-10.05,1.26-12.42,3.79-2.37,2.46-4.11,5.92-5.21,10.37l-19.69,85.62c-.79,3.67-1.18,6.35-1.18,8.03,0,3.61,3.43,5.41,10.28,5.41,22.88,0,39.34-9.93,49.41-29.77l4.11.9-9.65,35.19h-90.2Z"/>
      <path class="cls-4" d="m3806.59,621.89l3.71,2.61c-6.11,10.65-11.12,17.45-15.02,20.4-3.85,2.95-7.7,4.42-11.55,4.42-7.58,0-11.38-4.12-11.38-12.36,0-2.77.87-7.76,2.6-14.98l8.06-34.11c1.32-5.35,1.98-8.66,1.98-9.92,0-3.91-2.82-5.86-8.47-5.86h-1.1v-4.96c13.17-1.09,24.08-2.86,32.73-5.33l-14.39,60.09c-1.32,5.41-1.98,9.33-1.98,11.73,0,.84.24,1.53.71,2.07.48.54,1.11.81,1.9.81,2.53,0,6.59-4.87,12.18-14.62Zm-14.39-88.51c0-3.43,1.03-6.35,3.08-8.75,2.11-2.41,4.69-3.61,7.74-3.61s5.59,1.23,7.76,3.69c2.21,2.41,3.32,5.36,3.32,8.84,0,3.13-1.01,5.99-3.01,8.57-2,2.53-4.85,3.79-8.54,3.79-2.17,0-4.43-1.09-6.81-3.25-2.37-2.16-3.55-5.26-3.55-9.29Z"/>
      <path class="cls-4" d="m3975.92,574.8c0,16.54-15.6,41.38-46.81,74.52h-4.34l.95-31.94c0-8.12-.3-15.37-.87-21.74-.91-10.11-1.9-16.54-3.01-19.31-1.1-2.83-3-4.24-5.69-4.24h-2.76v-4.96c5.11-.84,13.44-2.61,24.98-5.33,3,11.55,4.79,32.06,5.37,61.54,13.66-17.32,20.48-28.87,20.48-34.64,0-1.69-1.19-4.06-3.56-7.13-2.37-3.18-3.56-6.34-3.56-9.47,0-2.77.85-5.17,2.53-7.22,1.68-2.05,3.77-3.07,6.25-3.07,2.15,0,4.36,1.14,6.63,3.43,2.27,2.29,3.4,5.47,3.4,9.56Z"/>
      <path class="cls-4" d="m4099,613.23c-.63,3.37-.95,6.29-.95,8.75,0,10.35,3.72,15.52,11.16,15.52,5.58,0,11.7-5.68,18.34-17.05l4.66,3.16c-4.27,8.84-8.91,15.34-13.92,19.49-4.95,4.15-10.25,6.22-15.89,6.22-6.85,0-12.7-2.46-17.55-7.4-4.8-4.93-7.19-11.69-7.19-20.3,0-13.84,4.69-27.25,14.07-40.24,9.38-13.05,20.22-19.58,32.5-19.58,4.79,0,8.8,1.39,12.02,4.15,3.21,2.71,4.82,6.74,4.82,12.09,0,6.92-3.69,13.98-11.07,21.2-7.33,7.22-17.67,11.88-31,13.98Zm1.19-6.05c7.22-1.92,13.41-5.77,18.58-11.54,5.21-5.84,7.82-13.03,7.82-21.57,0-4.45-1.58-6.68-4.74-6.68-3.91,0-7.96,3.76-12.18,11.28-4.17,7.46-7.33,16.96-9.49,28.51Z"/>
      <path class="cls-4" d="m4246.6,619.01l4.27.54c.63,7.64,2.37,13.6,5.21,17.86,2.85,4.22,6.3,6.32,10.36,6.32,3,0,5.3-.99,6.89-2.98,1.63-2.05,2.45-4.24,2.45-6.59,0-2.64-.42-4.96-1.27-6.94-.85-2.05-2.39-4.6-4.66-7.67-8.69-11.84-13.68-19.76-14.94-23.73-1.27-4.03-1.9-7.73-1.9-11.1,0-6.61,1.95-12.09,5.85-16.42,3.89-4.33,9.35-6.5,16.36-6.5,2.85,0,5.75.69,8.69,2.08,3.01,1.32,5.33,1.99,6.96,1.99s3.13-1.27,4.5-3.79h4.66l-3.71,28.6-4.27-.36c-2.15-15.03-7.03-22.56-14.63-22.56-3.21,0-5.53.99-6.95,2.98-1.37,1.93-2.05,4.33-2.05,7.22,0,1.74.53,3.7,1.58,5.86,1.05,2.11,2.45,4.37,4.18,6.77,7.33,10.52,11.99,17.68,14,21.47,2,3.73,3,7.97,3,12.72,0,7.34-2.29,13.26-6.87,17.77-4.54,4.51-10.25,6.76-17.16,6.76-2.74,0-5.77-.6-9.08-1.8-3.28-1.26-5.38-1.9-6.34-1.9-2.37,0-3.87,1.23-4.5,3.7h-4.34l3.71-30.31Z"/>
    </g>
    <path d="m1968.94,213.28c14.11,0,24.65,3.84,31.7,11.54,7.06,7.67,10.58,19.82,10.58,36.31s-3.52,29.19-10.58,37.14c-7.05,7.98-17.13,11.99-30.29,11.99-1.72,0-4.37-.11-7.96-.42v-96.56h6.55m46.07,105.35c15.41-3.65,27.53-10.64,36.3-20.93,8.77-10.33,13.13-22.76,13.13-37.37,0-17.03-6.78-31.31-20.33-42.78-13.54-11.46-35.96-17.17-67.18-17.17h-94.89v6.1c9.96,0,16.76.97,20.33,2.88,3.59,1.9,6.12,4.42,7.59,7.48,1.45,3.09,2.18,10.65,2.18,22.81v144.92c0,12.15-.73,19.75-2.18,22.81-1.46,3.07-3.97,5.58-7.49,7.46-3.53,1.93-10.34,2.84-20.43,2.84v6.18h110.66v-6.18c-9.97,0-16.81-.88-20.43-2.73-3.67-1.85-6.23-4.34-7.7-7.46-1.47-3.15-2.18-10.77-2.18-22.92v-61.8c24.7,0,42.25-1.39,52.62-4.14m-274.33-106.21c17.28,0,29.78,4.06,37.5,12.2,7.68,8.12,11.56,20.71,11.56,37.72,0,11.77-2.12,21.29-6.29,28.58-4.17,7.3-9.97,12.35-17.34,15.17-7.37,2.76-18.52,4.17-33.39,4.17h-9.17v-97.84h17.13m-2.8,109.71l70.01,101.74h68.55v-6.18c-5.71-.25-10.74-2.07-15.14-5.5-2.91-2.46-7.83-8.59-14.74-18.42l-52.23-75.5c13.31-3.4,23.6-8.54,30.91-15.38,11.57-10.77,17.34-24.41,17.34-40.93,0-13.53-3.85-25.27-11.54-35.29-7.71-10.03-17.68-16.93-29.83-20.69-12.15-3.73-31.41-5.6-57.71-5.6h-101.07v6.1c9.85,0,16.58.97,20.22,2.88,3.64,1.9,6.23,4.42,7.7,7.48,1.45,3.09,2.18,10.65,2.18,22.81v144.92c0,12.15-.73,19.75-2.18,22.81-1.46,3.07-4.03,5.58-7.59,7.46-3.61,1.93-10.37,2.84-20.33,2.84v6.18h111.24v-6.18c-9.97,0-16.76-.88-20.35-2.73-3.57-1.85-6.11-4.34-7.54-7.46-1.48-3.15-2.21-10.77-2.21-22.92v-62.44h14.33m-727.09-121.75h-88.88v6.1h6.98c6.1,0,10.94,1.11,14.51,3.29,3.59,2.18,6.01,4.69,7.2,7.46,1.2,2.82,1.78,9.88,1.78,21.2v141.22c0,10.08-.11,15.69-.37,16.77-1.2,5.22-2.9,9.22-5.02,12.09-2.1,2.88-5.21,5.16-9.35,6.85-4.14,1.71-8.62,2.48-13.57,2.32h-2.15v6.18h74.52v-6.18c-9.97,0-17.25-1.71-21.92-5.16-4.66-3.51-7.71-7.98-9.17-13.45-.52-2.43-.79-9.19-.79-20.21v-157.43l84.73,202.44h3.78l83.53-203.86v165.58c0,11.18-.58,18.14-1.77,20.85-1.61,3.7-3.74,6.3-6.39,7.79-3.85,2.35-8.98,3.45-15.35,3.45h-7.17v6.18h113.62v-6.18h-6.99c-6.08,0-10.98-1.02-14.62-3.15-3.67-2.1-6.05-4.58-7.17-7.45-1.16-2.88-1.71-10.03-1.71-21.49v-147.16c0-11.18.52-18.06,1.6-20.66,1.57-3.7,3.78-6.29,6.55-7.79,3.88-2.35,9.01-3.51,15.35-3.51h6.99v-6.1h-88.54l-58.98,147.32-61.24-147.32"/>
    <g>
      <path class="cls-1" d="m1475.05,428.82s-180.82,0-195.94-2.4c-15.32-2.29-49.9-9.03-29.83-55.89,6.99-16.71,12.62-29.79,16.92-39.71.52-1.49,1.23-2.87,1.75-4.22.41-.64.68-1.41,1.1-2.27,1.9-4.14,4.58-10.02,7.96-17.18.68,9.17,6.52,50.4,48.95,52.03,4.3.14,8.83.25,13.43.5,47.05,1.13,107.76.5,107.76.5l27.89,68.65Z"/>
      <path class="cls-23" d="m1523.47,220.57c-.19-.2-.37-.39-.52-.58v-.14c.21.2.41.44.52.72Z"/>
      <path class="cls-21" d="m1523.99,221.2c-.17-.19-.34-.44-.52-.63-.11-.27-.32-.52-.52-.72v.14c-16.87-20.46-32.3-29.22-46.67-32.28-2.41-.58-4.72-.89-7.02-1.14-2.41-.25-4.74-.33-7.02-.33-19.41,0-33.5,7.84-43.82,17.67-11.34,10.61-18.03,23.45-21.53,30.35-6.79,13.01-57.34,125.29-57.34,125.29l-.14.11c-4.61-.25-9.13-.36-13.43-.5-42.43-1.63-48.27-42.86-48.95-52.03,14.51-31.12,40.18-85.66,55.76-117.53,22.9-46.53,55.42-91.63,85.62-91.63s48.27,20.27,61.01,37.83c6.25,8.4,15.48,24.58,23.83,40.99,8.4,15.82,16,32.03,19.79,41.81.43.88.69,1.88.95,2.59Z"/>
      <path class="cls-22" d="m1619.59,428.82h-88.51s-66.58-161.08-73.36-173.97c-6.07-11.77-18.27-43.41-39.31-50.93,10.32-9.83,24.41-17.67,43.82-17.67,2.28,0,4.61.08,7.02.33,2.3.25,4.61.56,7.02,1.14,14.37,3.06,29.81,11.82,46.67,32.28v-.14c.21.2.41.44.52.72.18.19.36.44.52.63l95.6,207.61Z"/>
    </g>
  </g>
</svg>