<svg width="18" height="16" viewBox="0 0 18 16" fill="none" xmlns="http://www.w3.org/2000/svg">
<path fill-rule="evenodd" clip-rule="evenodd" d="M11.8669 13.6079C11.2067 13.6079 10.6707 14.1437 10.6707 14.8042C10.6707 15.4646 11.2065 16.0002 11.8669 16.0002C12.5273 16.0002 13.0627 15.4644 13.0627 14.8042C13.0629 14.1437 12.5269 13.6079 11.8669 13.6079Z" fill="#053C48"/>
<path fill-rule="evenodd" clip-rule="evenodd" d="M7.28513 13.6079C6.62493 13.6079 6.08887 14.1437 6.08887 14.8042C6.08887 15.4644 6.6247 16.0002 7.28513 16.0002C7.94555 16.0002 8.48116 15.4644 8.48116 14.8042C8.48116 14.1437 7.94555 13.6079 7.28513 13.6079Z" fill="#053C48"/>
<path fill-rule="evenodd" clip-rule="evenodd" d="M16.5009 3.01255H4.00569L3.66957 0.516768C3.62101 0.155235 3.41947 0 3.0618 0H0.598016C0.267575 0 0 0.268256 0 0.59847C0 0.928684 0.267349 1.19649 0.598016 1.19649H2.54844L3.94577 9.70012C4.17863 11.1637 4.51383 12.5813 6.41591 12.5813H12.9943C14.9205 12.5813 15.1322 11.2066 15.4778 9.82335L16.9453 3.95349C17.0588 3.49981 17.0867 3.01255 16.5009 3.01255ZM15.3074 5.72121H7.16667C6.83759 5.72121 6.56865 5.99015 6.56865 6.31923C6.56865 6.64854 6.83759 6.91747 7.16667 6.91747H15.0085L14.6672 8.28304H8.62914C8.30029 8.28304 8.03135 8.55197 8.03135 8.88105V8.88151C8.03135 9.21036 8.30029 9.4793 8.62914 9.4793H14.3681L14.3047 9.73326C14.1157 10.4899 14.0726 11.3852 12.9945 11.3852H6.41614C5.2773 11.3852 5.2487 10.3617 5.11321 9.54784L4.22333 4.20858H15.686L15.3076 5.72121H15.3074Z" fill="#464255"/>
</svg>
