<svg width="20" height="20" viewBox="0 0 20 20" fill="none" xmlns="http://www.w3.org/2000/svg">
<path d="M12.9748 9.72471C13.6879 9.11628 14.1973 8.30384 14.4343 7.39693C14.6713 6.49003 14.6245 5.53226 14.3003 4.65276C13.976 3.77326 13.3899 3.01432 12.621 2.47825C11.852 1.94219 10.9372 1.65479 9.99984 1.65479C9.06248 1.65479 8.14765 1.94219 7.3787 2.47825C6.60975 3.01432 6.02365 3.77326 5.69942 4.65276C5.37519 5.53226 5.32842 6.49003 5.56542 7.39693C5.80241 8.30384 6.31178 9.11628 7.02484 9.72471C5.45006 10.3266 4.09486 11.3919 3.13819 12.78C2.18151 14.1682 1.66837 15.8138 1.6665 17.4997C1.6665 17.7207 1.7543 17.9327 1.91058 18.089C2.06686 18.2452 2.27882 18.333 2.49984 18.333C2.72085 18.333 2.93281 18.2452 3.08909 18.089C3.24537 17.9327 3.33317 17.7207 3.33317 17.4997C3.33317 15.7316 4.03555 14.0359 5.28579 12.7857C6.53604 11.5354 8.23173 10.833 9.99984 10.833C11.7679 10.833 13.4636 11.5354 14.7139 12.7857C15.9641 14.0359 16.6665 15.7316 16.6665 17.4997C16.6665 17.7207 16.7543 17.9327 16.9106 18.089C17.0669 18.2452 17.2788 18.333 17.4998 18.333C17.7209 18.333 17.9328 18.2452 18.0891 18.089C18.2454 17.9327 18.3332 17.7207 18.3332 17.4997C18.3313 15.8138 17.8182 14.1682 16.8615 12.78C15.9048 11.3919 14.5496 10.3266 12.9748 9.72471V9.72471ZM9.99984 9.16638C9.42298 9.16638 8.85907 8.99532 8.37943 8.67483C7.89978 8.35434 7.52595 7.89882 7.30519 7.36587C7.08443 6.83292 7.02667 6.24648 7.13921 5.6807C7.25175 5.11492 7.52954 4.59522 7.93744 4.18732C8.34535 3.77941 8.86505 3.50163 9.43082 3.38909C9.9966 3.27655 10.583 3.33431 11.116 3.55506C11.649 3.77582 12.1045 4.14965 12.425 4.6293C12.7454 5.10894 12.9165 5.67285 12.9165 6.24971C12.9165 7.02326 12.6092 7.76512 12.0622 8.31211C11.5153 8.85909 10.7734 9.16638 9.99984 9.16638V9.16638Z" fill="#464255"/>
</svg>
