<svg width="19" height="18" viewBox="0 0 19 18" fill="none" xmlns="http://www.w3.org/2000/svg">
<path d="M18.8094 14.9382C18.645 15.4344 18.2844 15.6096 17.7853 15.5672C17.6706 15.5576 17.5185 15.5271 17.4462 15.5848C17.3524 15.6599 17.4728 15.7905 17.4886 15.899C17.635 16.9243 16.9483 17.7935 15.9196 17.8235C14.8181 17.8557 14.0302 16.8338 14.3004 15.7814C14.3563 15.5638 14.362 15.5655 14.1376 15.5655C11.9955 15.5655 9.85291 15.5655 7.71085 15.5655C7.64416 15.5655 7.57747 15.5655 7.50851 15.5655C7.50004 15.6594 7.54073 15.73 7.56108 15.8057C7.79337 16.671 7.19596 17.6211 6.30919 17.7952C5.38228 17.9772 4.48476 17.3487 4.36042 16.4393C4.32594 16.185 4.34007 15.9391 4.42203 15.6989C4.46102 15.5842 4.42768 15.5622 4.32029 15.5644C4.11852 15.5695 3.91618 15.5689 3.71441 15.565C2.87793 15.5486 2.28449 14.9806 2.23475 14.1497C2.22966 14.0644 2.23023 13.9791 2.23023 13.8932C2.23023 10.0143 2.23023 6.13483 2.2291 2.25595C2.2291 2.17117 2.22684 2.08413 2.21101 2.00105C2.1788 1.83488 2.04598 1.7275 1.88716 1.7388C1.72156 1.75067 1.617 1.8411 1.58139 2.005C1.57122 2.05248 1.56839 2.10165 1.56105 2.15026C1.49944 2.53119 1.23211 2.79909 0.877736 2.83583C0.496234 2.87539 0.175208 2.66853 0.0389979 2.29551C0.0288245 2.26782 0.0129993 2.24182 0 2.21525C0 2.08074 0 1.94622 0 1.81171C0.0881692 1.44773 0.227205 1.11201 0.472497 0.81811C1.28693 -0.156273 2.91693 -0.000280961 3.53581 1.11031C3.72684 1.45338 3.79693 1.81227 3.79693 2.19886C3.7941 6.04722 3.79523 9.89615 3.7958 13.7445C3.7958 14.0243 3.76358 13.9988 4.05183 13.9994C8.66093 13.9994 13.2695 14.0011 17.8786 13.9971C18.3273 13.9971 18.645 14.1627 18.7942 14.5996C18.7959 14.6036 18.8043 14.6059 18.81 14.6087V14.9387L18.8094 14.9382Z" fill="black"/>
<path d="M15.2822 7.53126C16.0413 7.53126 16.7998 7.53013 17.5588 7.53126C18.0488 7.53183 18.319 7.7986 18.3201 8.29144C18.3229 9.5925 18.3229 10.8936 18.3201 12.1946C18.319 12.6954 18.0488 12.9571 17.5419 12.9571C16.03 12.9576 14.5187 12.9576 13.0068 12.9571C12.5049 12.9571 12.237 12.6886 12.2364 12.1867C12.2353 10.8919 12.2353 9.59702 12.2364 8.30218C12.2364 7.79973 12.5049 7.53183 13.0057 7.53126C13.7647 7.53013 14.5232 7.53126 15.2822 7.53126ZM16.3154 10.5748C15.9723 10.1888 15.6575 9.83553 15.3444 9.48059C15.2969 9.4269 15.2625 9.42408 15.2133 9.48003C14.9007 9.83553 14.5854 10.1882 14.2417 10.5748C14.3791 10.5748 14.4751 10.5838 14.569 10.5725C14.73 10.5533 14.7911 10.6014 14.7837 10.7766C14.769 11.1417 14.7832 11.5079 14.7775 11.8742C14.7758 11.99 14.8063 12.0386 14.9313 12.0341C15.1568 12.0256 15.3834 12.0251 15.6095 12.0341C15.7389 12.0392 15.7768 11.994 15.7745 11.8679C15.7677 11.4898 15.7773 11.1117 15.7694 10.7336C15.7666 10.6036 15.8084 10.5612 15.935 10.5725C16.0475 10.5821 16.1617 10.5748 16.316 10.5748H16.3154Z" fill="black"/>
<path d="M11.5898 6.69546C10.837 6.69546 10.0841 6.69659 9.33187 6.69546C8.81077 6.69433 8.55926 6.44112 8.55926 5.91663C8.5587 4.628 8.5587 3.33938 8.55926 2.05075C8.55926 1.5353 8.82151 1.27192 9.33752 1.27136C10.8432 1.27023 12.3483 1.27023 13.8539 1.27136C14.3739 1.27136 14.6345 1.52965 14.6356 2.04736C14.6373 3.3422 14.6379 4.63705 14.6356 5.93189C14.635 6.44338 14.3796 6.69489 13.8669 6.69602C13.1079 6.69715 12.3494 6.69602 11.5904 6.69602L11.5898 6.69546ZM10.5629 4.31319C10.7149 4.31319 10.8183 4.32224 10.9195 4.31093C11.0664 4.29454 11.106 4.35106 11.102 4.49405C11.0924 4.87216 11.1026 5.25027 11.0964 5.62838C11.0947 5.74029 11.1263 5.77759 11.2405 5.77364C11.466 5.76516 11.6932 5.76346 11.9187 5.77364C12.0516 5.77985 12.099 5.74707 12.0945 5.60465C12.0838 5.23897 12.0973 4.87273 12.0877 4.50705C12.0838 4.36123 12.1149 4.29341 12.2759 4.30924C12.3788 4.31941 12.4879 4.32902 12.6117 4.29059C12.2833 3.92095 11.9707 3.57054 11.661 3.21843C11.6113 3.16134 11.5791 3.16699 11.5321 3.22069C11.2219 3.57223 10.9099 3.92208 10.5629 4.31263V4.31319Z" fill="black"/>
<path d="M7.89787 12.958C7.14504 12.958 6.39221 12.9591 5.63938 12.958C5.14427 12.9568 4.87977 12.6946 4.8792 12.2006C4.87751 10.8995 4.87751 9.59849 4.8792 8.29743C4.8792 7.79045 5.14032 7.53216 5.64899 7.53216C7.16086 7.5316 8.67217 7.5316 10.184 7.53216C10.6927 7.53216 10.9521 7.79045 10.9527 8.29799C10.9538 9.59905 10.9538 10.9001 10.9527 12.2012C10.9527 12.6963 10.6888 12.9568 10.1925 12.958C9.42726 12.9591 8.66256 12.958 7.8973 12.958H7.89787ZM6.87996 10.5751C7.04669 10.5751 7.16312 10.5819 7.27786 10.5729C7.38863 10.5644 7.42537 10.5977 7.42311 10.7136C7.41576 11.0979 7.4248 11.4823 7.41802 11.866C7.41576 11.9881 7.44233 12.0407 7.57741 12.0344C7.80292 12.0237 8.02956 12.0243 8.25563 12.0344C8.38958 12.0407 8.41784 11.9898 8.41558 11.8666C8.4088 11.4823 8.41727 11.0979 8.41049 10.7142C8.40823 10.5994 8.44327 10.5638 8.55518 10.5723C8.6733 10.5813 8.79312 10.5746 8.95251 10.5746C8.60435 10.1818 8.28615 9.82287 7.96852 9.46341C7.93178 9.42158 7.90239 9.42215 7.86565 9.46341C7.54802 9.82287 7.22925 10.1818 6.88053 10.5746L6.87996 10.5751Z" fill="black"/>
</svg>
