<svg width="18" height="16" viewBox="0 0 18 16" fill="none" xmlns="http://www.w3.org/2000/svg">
<path d="M17.6197 5.24728V5.59144C17.6112 5.61217 17.5981 5.63199 17.595 5.65316C17.4729 6.52707 17.0211 7.17304 16.244 7.58703C16.1282 7.64874 16.1012 7.71811 16.1012 7.84019C16.1048 10.2732 16.1039 12.7057 16.1039 15.1387C16.1039 15.5414 15.9462 15.7004 15.5426 15.7004C11.0496 15.7004 6.55708 15.7004 2.0641 15.7004C1.65777 15.7004 1.50236 15.5446 1.50236 15.1414C1.50236 12.7084 1.50146 10.2754 1.50506 7.84289C1.50506 7.71361 1.47353 7.64288 1.35145 7.57802C0.621241 7.19196 0.185636 6.58203 0.0270708 5.77388C-0.0328417 5.46756 0.00319586 5.19053 0.17032 4.90358C0.993329 3.4864 1.79832 2.05796 2.60106 0.629066C2.73259 0.395272 2.90693 0.297971 3.17045 0.300673C3.9394 0.308331 4.70835 0.303376 5.47686 0.303376C8.44906 0.303376 11.4213 0.306079 14.3935 0.299322C14.6939 0.298421 14.8795 0.407885 15.0264 0.669608C15.8841 2.1994 16.7535 3.72199 17.6193 5.24683L17.6197 5.24728ZM4.62547 6.77663C4.60565 6.79014 4.58808 6.79645 4.57862 6.80906C4.05202 7.5145 3.34974 7.87353 2.46862 7.87217C2.34339 7.87217 2.36591 7.9492 2.36591 8.02038C2.36591 10.2412 2.36681 12.4616 2.36231 14.6824C2.36231 14.8211 2.41366 14.8414 2.53213 14.8396C2.91639 14.8337 3.30154 14.827 3.68534 14.8423C3.86688 14.8495 3.90111 14.7887 3.90066 14.6202C3.89436 13.1742 3.90562 11.7282 3.89391 10.2822C3.88625 9.37134 4.50925 8.76501 5.21694 8.7078C5.7539 8.66455 6.29446 8.67311 6.83277 8.7096C6.89494 8.71365 6.95755 8.72807 7.01792 8.74564C7.70939 8.94745 8.11481 9.50062 8.11571 10.2493C8.11751 11.7183 8.11751 13.1873 8.11391 14.6563C8.11391 14.7806 8.13013 14.8355 8.27743 14.8351C10.5442 14.8301 12.8105 14.8306 15.0773 14.8342C15.2012 14.8342 15.2444 14.8076 15.2439 14.6734C15.2394 12.4584 15.2403 10.2434 15.243 8.02849C15.243 7.91407 15.2196 7.86902 15.0935 7.87037C14.6056 7.87533 14.1556 7.74109 13.7416 7.48162C13.4461 7.29647 13.2078 7.05187 12.9961 6.76672C12.9556 6.81627 12.9222 6.85456 12.8916 6.89465C11.8834 8.19651 9.92345 8.19921 8.91574 6.89555C8.8279 6.78204 8.78781 6.78113 8.69997 6.89555C7.98643 7.82532 6.71159 8.133 5.65434 7.64018C5.2336 7.44423 4.8944 7.15322 4.62637 6.77528L4.62547 6.77663ZM16.3471 4.76618C16.3255 4.72159 16.3129 4.6905 16.2967 4.66167C15.657 3.5355 15.0151 2.41022 14.3795 1.2818C14.3223 1.18044 14.2493 1.17459 14.1534 1.17459C10.5847 1.17594 7.01566 1.17639 3.44704 1.17278C3.32631 1.17278 3.2655 1.21423 3.20784 1.31648C2.58889 2.41518 1.96454 3.51027 1.34334 4.60762C1.31632 4.65537 1.27172 4.69816 1.27938 4.76618H16.3476H16.3471ZM4.76782 12.4089C4.76782 13.1598 4.77097 13.9112 4.76466 14.6621C4.76376 14.795 4.79665 14.8373 4.93494 14.836C5.65164 14.8292 6.36834 14.8297 7.08503 14.836C7.21747 14.8369 7.25757 14.804 7.25711 14.6662C7.25216 13.1868 7.25486 11.7079 7.25351 10.2286C7.25351 9.80604 7.00215 9.55603 6.57916 9.55333C6.21202 9.55108 5.84534 9.55198 5.47821 9.55333C5.00476 9.55423 4.76872 9.78757 4.76782 10.2597C4.76647 10.9764 4.76782 11.6931 4.76782 12.4098V12.4089ZM2.53078 5.63964C2.02671 5.63964 1.52263 5.6428 1.01856 5.63739C0.902785 5.63604 0.883414 5.66847 0.914947 5.77479C0.950985 5.89641 0.996933 6.01218 1.05324 6.1248C1.3501 6.71762 2.02085 7.06989 2.71187 6.99556C3.37316 6.92393 3.96418 6.4113 4.12229 5.78244C4.15247 5.66307 4.1268 5.63649 4.00878 5.63739C3.51641 5.64235 3.0236 5.63964 2.53078 5.63964ZM6.69853 5.63964C6.20572 5.63964 5.7129 5.64235 5.22009 5.63784C5.10342 5.63694 5.07594 5.65946 5.10792 5.78334C5.29261 6.48968 5.95976 7.00457 6.70754 7.00637C7.44721 7.00817 8.11436 6.50139 8.30446 5.80362C8.34095 5.66892 8.31212 5.63559 8.17607 5.63739C7.68326 5.6437 7.19045 5.64009 6.69763 5.64009L6.69853 5.63964ZM10.9181 5.63964C10.419 5.63964 9.91939 5.6419 9.42027 5.63784C9.30675 5.63694 9.26936 5.65811 9.30135 5.78379C9.47928 6.48292 10.1433 6.99916 10.887 7.00637C11.6357 7.01358 12.3114 6.50049 12.4974 5.79416C12.5303 5.66983 12.5136 5.63559 12.3817 5.63694C11.8938 5.6428 11.4059 5.63919 10.9181 5.63919V5.63964ZM15.0872 5.6455C14.6002 5.6455 14.1133 5.6491 13.6263 5.64325C13.4984 5.6419 13.4551 5.66217 13.4934 5.80407C13.6799 6.49824 14.3493 7.00862 15.0899 7.00907C15.8345 7.00952 16.5111 6.49103 16.6931 5.78965C16.7237 5.67118 16.7017 5.6428 16.5827 5.6437C16.0845 5.6482 15.5859 5.6455 15.0876 5.6455H15.0872Z" fill="#464255"/>
<path d="M11.3163 12.9012C10.9433 12.9012 10.5703 12.9034 10.1977 12.9007C9.42879 12.8944 8.93958 12.4097 8.93373 11.6435C8.92922 11.0754 8.92877 10.5074 8.93373 9.93981C8.94048 9.18527 9.43735 8.69291 10.1896 8.69065C10.941 8.6884 11.6929 8.6884 12.4442 8.69065C13.1965 8.69291 13.6938 9.18752 13.6992 9.94116C13.7038 10.5146 13.7047 11.0885 13.6992 11.6624C13.692 12.4003 13.2064 12.8886 12.469 12.9003C12.0848 12.9066 11.7001 12.9012 11.3158 12.9016L11.3163 12.9012ZM11.3185 12.0363C11.6911 12.0363 12.0636 12.0376 12.4361 12.0358C12.719 12.0345 12.8352 11.9205 12.8361 11.6412C12.8379 11.0795 12.8379 10.5178 12.8361 9.95602C12.8352 9.67493 12.7181 9.5542 12.4415 9.5533C11.6906 9.55105 10.9397 9.55105 10.1887 9.5533C9.9198 9.5542 9.79908 9.67448 9.79818 9.94206C9.79592 10.5097 9.79592 11.0768 9.79818 11.6444C9.79908 11.9232 9.9144 12.0345 10.2004 12.0358C10.573 12.0376 10.9455 12.0358 11.3181 12.0358L11.3185 12.0363Z" fill="#464255"/>
</svg>
