<svg width="17" height="22" viewBox="0 0 17 22" fill="none" xmlns="http://www.w3.org/2000/svg">
<g clip-path="url(#clip0_369_2607)">
<path d="M0.000147545 3.73096C0.766923 4.30509 1.59687 4.61616 2.4494 4.85971C3.63622 5.19879 4.84702 5.38483 6.06934 5.49586C7.54156 5.62989 9.01425 5.64939 10.4874 5.53137C12.1547 5.39734 13.8053 5.16078 15.3979 4.57415C15.947 4.3716 16.4741 4.11804 16.9527 3.75596C17.0246 3.82898 16.9932 3.914 16.9932 3.98802C16.9955 5.2513 16.9863 6.51459 17.0001 7.77788C17.0043 8.16997 16.8614 8.44703 16.5838 8.66958C16.0001 9.13769 15.3287 9.39424 14.6426 9.60979C13.1875 10.0674 11.695 10.2699 10.1863 10.3605C8.67121 10.451 7.15794 10.4315 5.64791 10.2649C4.1992 10.1049 2.76801 9.84735 1.40644 9.25671C0.967953 9.06667 0.54376 8.84512 0.208094 8.46853C0.0872916 8.333 0.00199186 8.17497 0.00199186 7.98392C-0.000774614 6.58211 0.000147545 5.18029 0.000147545 3.73096Z" fill="black"/>
<path d="M0 9.44678C0.766775 10.0209 1.59672 10.332 2.44925 10.5755C3.63607 10.9146 4.84687 11.1007 6.06919 11.2117C7.54142 11.3457 9.0141 11.3652 10.4873 11.2472C12.1545 11.1132 13.8052 10.8766 15.3977 10.29C15.9469 10.0874 16.4739 9.83387 16.9525 9.47178C17.0244 9.5448 16.9931 9.62982 16.9931 9.70384C16.9954 10.9671 16.9862 12.2304 17 13.4937C17.0042 13.8858 16.8612 14.1629 16.5836 14.3854C15.9999 14.8535 15.3286 15.1101 14.6425 15.3256C13.1873 15.7832 11.6948 15.9858 10.1862 16.0763C8.67106 16.1668 7.1578 16.1473 5.64776 15.9808C4.19905 15.8207 2.76786 15.5632 1.40629 14.9725C0.967806 14.7825 0.543613 14.5609 0.207947 14.1844C0.087144 14.0488 0.00184432 13.8908 0.00184432 13.6997C-0.000922159 12.2979 0.000461079 10.8961 0.000461079 9.44678H0Z" fill="black"/>
<path d="M0 15.3169C0.766775 15.891 1.59672 16.2021 2.44925 16.4457C3.63607 16.7847 4.84687 16.9708 6.06919 17.0818C7.54142 17.2158 9.0141 17.2353 10.4873 17.1173C12.1545 16.9833 13.8052 16.7467 15.3977 16.1601C15.9469 15.9575 16.4739 15.704 16.9525 15.3419C17.0244 15.4149 16.9931 15.4999 16.9931 15.574C16.9954 16.8372 16.9862 18.1005 17 19.3638C17.0042 19.7559 16.8612 20.033 16.5836 20.2555C15.9999 20.7236 15.3286 20.9802 14.6425 21.1957C13.1873 21.6533 11.6948 21.8559 10.1862 21.9464C8.67106 22.0369 7.1578 22.0174 5.64776 21.8509C4.19905 21.6908 2.76786 21.4333 1.40629 20.8427C0.967806 20.6526 0.543613 20.4311 0.207947 20.0545C0.087144 19.9189 0.00184432 19.7609 0.00184432 19.5699C-0.000922159 18.168 0.000461079 16.7662 0.000461079 15.3169H0Z" fill="black"/>
<path d="M8.90032 4.80355C6.67423 4.79905 4.89123 4.66552 3.13222 4.26343C2.30873 4.07538 1.49769 3.83983 0.754891 3.38973C0.560315 3.2717 0.381877 3.12967 0.22926 2.95113C-0.0713636 2.59955 -0.0759744 2.21046 0.226494 1.85938C0.591669 1.43578 1.06935 1.21473 1.55671 1.02119C2.6301 0.595092 3.74868 0.382544 4.87786 0.231009C6.67377 -0.00954559 8.47567 -0.0520553 10.2799 0.0564694C11.8609 0.151491 13.429 0.351536 14.9534 0.845149C15.4956 1.02069 16.0254 1.23274 16.4901 1.59632C16.5824 1.66834 16.6681 1.75235 16.7474 1.84087C17.0693 2.20146 17.0702 2.60155 16.7516 2.96313C16.3924 3.37122 15.9286 3.58827 15.4546 3.77882C14.4144 4.19691 13.3294 4.40796 12.2344 4.56099C10.9844 4.73603 9.72842 4.80955 8.90032 4.80405V4.80355Z" fill="black"/>
</g>
<defs>
<clipPath id="clip0_369_2607">
<rect width="17" height="22" fill="white"/>
</clipPath>
</defs>
</svg>
